# xmcd
#
# Track frame offsets:
#	150
#	24551
#	42087
#	59485
#	74666
#	89290
#	103698
#	116557
#	131832
#	150116
#
# Disc length: 2158 seconds
#
# Revision: 2
# Processed by: cddbd v1.5.2PL0 Copyright (c) Steve Scherf et al.
# Submitted via: audiograbber 1.83.01
#
DISCID=83086c0a
DTITLE=Jungle Rot - Kill on Command
DYEAR=2011
DGENRE=Death Metal
TTITLE0=Their Finest Hour
TTITLE1=Bloodties
TTITLE2=Rise Up and Revolt
TTITLE3=Kill on Command
TTITLE4=Demoralized
TTITLE5=Push Comes to Shove
TTITLE6=I Predict a Riot
TTITLE7=No Mercy (From the Merciless)
TTITLE8=Born of Contagion
TTITLE9=Life Negated
EXTD=
EXTT0=
EXTT1=
EXTT2=
EXTT3=
EXTT4=
EXTT5=
EXTT6=
EXTT7=
EXTT8=
EXTT9=
PLAYORDER=
